<svg width="24" height="24" viewBox="0 0 24 24" fill="none" xmlns="http://www.w3.org/2000/svg">
<path d="M21 24H14.9531C14.9844 23.7969 15 23.6016 15 23.4141C15 22.0859 14.8477 20.7539 14.543 19.418C14.2383 18.082 13.8125 17.0859 13.2656 16.4297C15.2969 16.2578 16.8438 15.6602 17.9062 14.6367C18.9688 13.6133 19.5 12.2891 19.5 10.6641C19.5 9.24219 19 8.14844 18 7.38281V5.25C18 5.09375 17.9141 4.92969 17.7422 4.75781C17.5703 4.58594 17.4062 4.5 17.25 4.5C17.0625 4.5 16.1328 5.04688 14.4609 6.14062C13.7266 6.04688 12.9062 6 12 6C11.0937 6 10.2734 6.04688 9.53906 6.14062C7.86719 5.04688 6.9375 4.5 6.75 4.5C6.59375 4.5 6.42969 4.58594 6.25781 4.75781C6.08594 4.92969 6 5.09375 6 5.25C6 5.39062 5.98438 5.73438 5.95312 6.28125C5.92188 6.82812 5.89844 7.22656 5.88281 7.47656C4.96094 8.24219 4.5 9.30469 4.5 10.6641C4.5 12.2891 5.03125 13.6133 6.09375 14.6367C7.15625 15.6602 8.70312 16.2578 10.7344 16.4297C10.6562 16.5391 10.5469 16.7031 10.4062 16.9219C9.73438 17.6406 8.76562 18 7.5 18C7.25 18 7 17.8984 6.75 17.6953C6.5 17.4922 6.25391 17.2422 6.01172 16.9453C5.76953 16.6484 5.51562 16.3516 5.25 16.0547C4.98438 15.7578 4.65625 15.5078 4.26562 15.3047C3.875 15.1016 3.45312 15 3 15C3 15.125 3.07812 15.2852 3.23438 15.4805C3.39062 15.6758 3.59766 15.9336 3.85547 16.2539C4.11328 16.5742 4.32812 16.9062 4.5 17.25C4.90625 18.0469 5.32812 18.6211 5.76562 18.9727C6.20312 19.3242 6.78125 19.5 7.5 19.5C8.25 19.5 8.92969 19.3906 9.53906 19.1719C9.17969 20.5469 9 21.9609 9 23.4141C9 23.6016 9.01562 23.7969 9.04688 24H3C2.17187 24 1.46484 23.707 0.878906 23.1211C0.292969 22.5352 0 21.8281 0 21V3C0 2.17188 0.292969 1.46484 0.878906 0.878906C1.46484 0.292969 2.17187 0 3 0H21C21.8281 0 22.5352 0.292969 23.1211 0.878906C23.707 1.46484 24 2.17188 24 3V21C24 21.8281 23.707 22.5352 23.1211 23.1211C22.5352 23.707 21.8281 24 21 24Z" fill="white"/>
</svg>
