<svg width="24" height="24" viewBox="0 0 24 24" fill="none" xmlns="http://www.w3.org/2000/svg">
<path fill-rule="evenodd" clip-rule="evenodd" d="M0 6C0 2.68629 2.68629 0 6 0H18C21.3137 0 24 2.68629 24 6V18C24 21.3137 21.3137 24 18 24H6C2.68629 24 0 21.3137 0 18V6ZM8.00008 6.11111C8.00008 6.96661 7.46758 7.70289 6.49933 7.70289C5.58808 7.70289 5.00008 7.0085 5.00008 6.153C5.00008 5.27494 5.57008 4.5 6.50008 4.5C7.43008 4.5 7.98208 5.23306 8.00008 6.11111ZM5.00008 19V8.52778H8.00008V19H5.00008ZM9.50008 8.72621C9.54222 9.642 9.58436 10.7024 9.58436 11.9713V18.9987H12.8896V13.1352C12.8896 12.8436 12.9103 12.5528 12.9945 12.3442C13.2251 11.7619 13.6647 11.0555 14.5422 11.0555C15.6933 11.0555 16.1948 12.0543 16.1948 13.3635V18.9987H19.5001V12.8863C19.5001 9.89087 17.9301 8.4987 15.8379 8.4987C14.1225 8.4987 13.0978 9.47527 12.6797 10.1414H12.6169L12.4698 8.72621H9.50008Z" fill="white"/>
</svg>
