<svg width="24" height="24" viewBox="0 0 24 24" fill="none" xmlns="http://www.w3.org/2000/svg">
<path fill-rule="evenodd" clip-rule="evenodd" d="M3 0C1.34315 0 0 1.34315 0 3V21C0 22.6569 1.34315 24 3 24H21C22.6569 24 24 22.6569 24 21V3C24 1.34315 22.6569 0 21 0H3ZM5.47493 7.54203C5.51232 7.64205 5.52642 7.7498 5.51608 7.85654V15.6497C5.53854 15.7885 5.5294 15.9308 5.4894 16.0653C5.4494 16.1998 5.37964 16.3227 5.2857 16.4243L3.5 18.6718V18.9684H8.56307V18.6718L6.77737 16.4243C6.58463 16.2188 6.49409 15.9333 6.53085 15.6497V8.90914L10.9754 18.9675H11.4908L15.3087 8.90914V16.9264C15.3087 17.1393 15.3087 17.1812 15.1725 17.3207L13.8018 18.7034V19H20.4677V18.7034L19.1419 17.3541C19.0849 17.3084 19.0409 17.2475 19.0144 17.178C18.9879 17.1084 18.9799 17.0328 18.9913 16.959V7.04105C18.9801 6.96723 18.9882 6.89164 19.0146 6.82214C19.0411 6.75265 19.0851 6.69178 19.1419 6.64586L20.5 5.29663V5H15.8018L12.4527 13.6663L8.64285 5H3.71425V5.29756L5.30094 7.28095C5.37794 7.35256 5.43755 7.44201 5.47493 7.54203Z" fill="white"/>
</svg>
