<svg width="48" height="41" viewBox="0 0 48 41" fill="none" xmlns="http://www.w3.org/2000/svg">
<rect width="40.4211" height="40.4211" fill="#C4C4C4" fill-opacity="0.32"/>
<rect y="35.3687" width="40.4211" height="5.05263" fill="black"/>
<rect width="5.05263" height="5.05263" transform="matrix(-1 0 0 1 48 35.3687)" fill="black"/>
<path d="M13.5645 0H0V35.3684H8.18989V24.2526H13.5645C20.6283 24.2526 26.1053 18.8463 26.1053 12.1263C26.1053 5.40632 20.6283 0 13.5645 0ZM13.5645 16.6737H8.18989V7.57895H13.5645C16.0727 7.57895 17.9154 9.54947 17.9154 12.1263C17.9154 14.7032 16.0727 16.6737 13.5645 16.6737Z" fill="white"/>
<path d="M27.836 35.3684C35.0274 35.3684 40.4211 31.1579 40.4211 23.5294V0H32.4305V23.5294C32.4305 25.6594 31.3818 27.6409 27.8859 27.6409C25.1891 27.6409 24.0405 26.6006 22.9418 24.6687L16 28.6316C18.2973 33.0402 22.2925 35.3684 27.836 35.3684Z" fill="white"/>
</svg>
