<svg width="24" height="20" viewBox="0 0 24 20" fill="none" xmlns="http://www.w3.org/2000/svg">
<path fill-rule="evenodd" clip-rule="evenodd" d="M18.6529 18H5.51066L4.01237 11.5H20.1511L18.6529 18ZM2.28584 9.5H21.8777V7H2.28584V9.5ZM22.8573 5H21.2145L15.1038 0.500004C14.6649 0.180004 14.0522 0.280004 13.7363 0.730004C13.4199 1.175 13.5188 1.8 13.9577 2.125L17.8653 5H6.29825L10.2058 2.125C10.6447 1.8 10.7436 1.175 10.4272 0.730004C10.1113 0.280004 9.49907 0.180004 9.05972 0.500004L2.94903 5H1.30625C0.765517 5 0.32666 5.45 0.32666 6V10.5C0.32666 11.055 0.765517 11.5 1.30625 11.5H1.9998L3.78119 19.23C3.88552 19.68 4.28029 20 4.73482 20H19.4287C19.8832 20 20.278 19.68 20.3823 19.23L22.1637 11.5H22.8573C23.398 11.5 23.8369 11.055 23.8369 10.5V6C23.8369 5.45 23.398 5 22.8573 5Z" fill="#B8C5D3"/>
</svg>
